<svg width="28" height="28" viewBox="0 0 28 28" fill="none" xmlns="http://www.w3.org/2000/svg">
  <path d="M17.2314 6.46128C13.663 6.46128 6.51519 3.56856 6.51519 0H6.46235C6.46235 2.85611 7.59691 5.59523 9.61644 7.61484C11.636 9.63444 14.375 10.7691 17.2312 10.7692C18.9448 10.7692 20.5883 11.45 21.8001 12.6617C23.0119 13.8735 23.6927 15.517 23.6927 17.2306C23.6931 18.9443 23.0126 20.5881 21.8011 21.8C20.5895 23.0121 18.9462 23.6931 17.2325 23.6935C15.5187 23.6938 13.8751 23.0133 12.6631 21.8018C11.451 20.5902 10.7699 18.9468 10.7696 17.2332C10.7696 15.8189 10.491 14.4185 9.94974 13.112C9.40849 11.8054 8.6152 10.6182 7.61515 9.61822C6.61509 8.61823 5.42788 7.82501 4.12126 7.28385C2.81466 6.74269 1.41424 6.46419 0 6.46424V6.51666C3.56788 6.51666 6.46062 13.6614 6.46195 17.2305H6.46128C6.46126 19.3605 7.09283 21.4426 8.27612 23.2136C9.45943 24.9846 11.1413 26.3649 13.1091 27.18C15.0769 27.9953 17.2422 28.2086 19.3313 27.7931C21.4203 27.3777 23.3392 26.352 24.8454 24.8461C26.3515 23.34 27.3773 21.4212 27.7929 19.3321C28.2086 17.2431 27.9954 15.0779 27.1804 13.11C26.3655 11.1421 24.9853 9.4601 23.2144 8.27665C21.4434 7.09319 19.3613 6.46144 17.2314 6.46128Z" fill="url(#paint0_linear_1_287)"/>
  <defs>
    <linearGradient id="paint0_linear_1_287" x1="22.316" y1="24.22" x2="6.04799" y2="1.876" gradientUnits="userSpaceOnUse">
      <stop offset="0.295" stop-color="#E73959"/>
      <stop offset="0.384" stop-color="#E73D58"/>
      <stop offset="0.477" stop-color="#E74955"/>
      <stop offset="0.571" stop-color="#E95E51"/>
      <stop offset="0.666" stop-color="#EA7B4B"/>
      <stop offset="0.761" stop-color="#EDA044"/>
      <stop offset="0.857" stop-color="#EFCE3B"/>
      <stop offset="0.868" stop-color="#F0D43A"/>
    </linearGradient>
  </defs>
</svg>
