<svg width="20" height="20" viewBox="0 0 20 20" fill="none" xmlns="http://www.w3.org/2000/svg">
  <g>
  <path d="M9.99999 17.8857C14.7339 17.8857 18.5714 14.0481 18.5714 9.31423C18.5714 4.58036 14.7339 0.742798 9.99999 0.742798C5.26612 0.742798 1.42856 4.58036 1.42856 9.31423C1.42856 14.0481 5.26612 17.8857 9.99999 17.8857Z" stroke="white" stroke-width="1.71429" stroke-linecap="round" stroke-linejoin="round"/>
  <path d="M14.3857 16.6857C15.7331 17.2862 16.94 18.1621 17.9286 19.2571" stroke="white" stroke-width="1.71429" stroke-linecap="round" stroke-linejoin="round"/>
  <path d="M2.07141 19.2571C3.06001 18.1621 4.26683 17.2862 5.61427 16.6857" stroke="white" stroke-width="1.71429" stroke-linecap="round" stroke-linejoin="round"/>
  <path d="M9.99998 13.6C12.3669 13.6 14.2857 11.6812 14.2857 9.31428C14.2857 6.94734 12.3669 5.02856 9.99998 5.02856C7.63304 5.02856 5.71426 6.94734 5.71426 9.31428C5.71426 11.6812 7.63304 13.6 9.99998 13.6Z" stroke="white" stroke-width="1.71429" stroke-linecap="round" stroke-linejoin="round"/>
  </g>
</svg>
