<svg width="20" height="20" viewBox="0 0 20 20" fill="none" xmlns="http://www.w3.org/2000/svg">
  <g clip-path="url(#clip0_1_52)">
    <path d="M7.47142 3.21423L8.0857 1.62852C8.1893 1.36004 8.37157 1.12911 8.60863 0.965965C8.8457 0.802825 9.1265 0.715083 9.41428 0.714233H10.5857C10.8735 0.715083 11.1543 0.802825 11.3913 0.965965C11.6284 1.12911 11.8107 1.36004 11.9143 1.62852L12.5286 3.21423L14.6143 4.41423L16.3 4.15709C16.5807 4.11899 16.8664 4.1652 17.1207 4.28984C17.3751 4.41448 17.5867 4.61193 17.7286 4.85709L18.3 5.85709C18.4464 6.10616 18.5139 6.39378 18.4935 6.68198C18.4731 6.97018 18.3658 7.24542 18.1857 7.47138L17.1428 8.79995V11.1999L18.2143 12.5285C18.3943 12.7545 18.5016 13.0297 18.522 13.3179C18.5425 13.6061 18.475 13.8937 18.3286 14.1428L17.7571 15.1428C17.6152 15.388 17.4037 15.5854 17.1493 15.7101C16.8949 15.8347 16.6093 15.8809 16.3286 15.8428L14.6428 15.5857L12.5571 16.7857L11.9428 18.3714C11.8392 18.6399 11.657 18.8708 11.4199 19.0339C11.1829 19.1971 10.902 19.2848 10.6143 19.2857H9.41428C9.1265 19.2848 8.8457 19.1971 8.60863 19.0339C8.37157 18.8708 8.1893 18.6399 8.0857 18.3714L7.47142 16.7857L5.3857 15.5857L3.69999 15.8428C3.4193 15.8809 3.13362 15.8347 2.87925 15.7101C2.62488 15.5854 2.41331 15.388 2.27142 15.1428L1.69999 14.1428C1.55356 13.8937 1.4861 13.6061 1.5065 13.3179C1.52691 13.0297 1.63422 12.7545 1.81428 12.5285L2.85713 11.1999V8.79995L1.7857 7.47138C1.60565 7.24542 1.49834 6.97018 1.47793 6.68198C1.45753 6.39378 1.52499 6.10616 1.67142 5.85709L2.24285 4.85709C2.38474 4.61193 2.59631 4.41448 2.85068 4.28984C3.10505 4.1652 3.39073 4.11899 3.67142 4.15709L5.35713 4.41423L7.47142 3.21423ZM7.14285 9.99995C7.14285 10.565 7.31042 11.1174 7.62436 11.5873C7.93831 12.0571 8.38453 12.4234 8.90661 12.6396C9.42868 12.8559 10.0032 12.9124 10.5574 12.8022C11.1116 12.6919 11.6207 12.4198 12.0203 12.0203C12.4199 11.6207 12.692 11.1116 12.8022 10.5573C12.9125 10.0031 12.8559 9.42864 12.6396 8.90657C12.4234 8.38449 12.0572 7.93827 11.5873 7.62432C11.1175 7.31037 10.5651 7.14281 9.99999 7.14281C9.24223 7.14281 8.5155 7.44382 7.97969 7.97964C7.44387 8.51546 7.14285 9.24219 7.14285 9.99995V9.99995Z" stroke="#C3C3C3" stroke-width="1.71429" stroke-linecap="round" stroke-linejoin="round"/>
  </g>
  <defs>
    <clipPath id="clip0_1_52">
      <rect width="20" height="20" fill="white"/>
    </clipPath>
  </defs>
</svg>
