<svg width="20" height="20" viewBox="0 0 20 20" fill="none" xmlns="http://www.w3.org/2000/svg">
  <g clip-path="url(#clip0_1_107)">
    <path d="M0.714294 9.99995C0.714294 11.8365 1.25889 13.6318 2.27922 15.1588C3.29955 16.6858 4.74978 17.876 6.44652 18.5788C8.14326 19.2816 10.0103 19.4655 11.8116 19.1072C13.6128 18.749 15.2674 17.8646 16.566 16.5659C17.8646 15.2673 18.749 13.6128 19.1073 11.8115C19.4656 10.0103 19.2817 8.14321 18.5789 6.44646C17.8761 4.74972 16.6859 3.29949 15.1589 2.27916C13.6318 1.25884 11.8365 0.71424 10 0.71424C7.33997 0.711296 4.78135 1.73474 2.85715 3.57138" stroke="white" stroke-width="1.71429" stroke-linecap="round" stroke-linejoin="round"/>
    <path d="M3.57143 0.714233L2.85715 3.57138L5.71429 4.28566" stroke="white" stroke-width="1.71429" stroke-linecap="round" stroke-linejoin="round"/>
    <path d="M10 5V10.7143L6.28574 12.5714" stroke="white" stroke-width="1.71429" stroke-linecap="round" stroke-linejoin="round"/>
  </g>
</svg>
