<svg width="20" height="20" viewBox="0 0 20 20" fill="none" xmlns="http://www.w3.org/2000/svg">
  <g clip-path="url(#clip0_1_8)">
    <path d="M6.42858 0.714233H2.14287C1.35389 0.714233 0.714294 1.35383 0.714294 2.1428V6.42852C0.714294 7.2175 1.35389 7.85709 2.14287 7.85709H6.42858C7.21756 7.85709 7.85715 7.2175 7.85715 6.42852V2.1428C7.85715 1.35383 7.21756 0.714233 6.42858 0.714233Z" stroke="white" stroke-width="1.71429" stroke-linecap="round" stroke-linejoin="round"/>
    <path d="M17.8572 0.714233H13.5715C12.7825 0.714233 12.1429 1.35383 12.1429 2.1428V6.42852C12.1429 7.2175 12.7825 7.85709 13.5715 7.85709H17.8572C18.6461 7.85709 19.2857 7.2175 19.2857 6.42852V2.1428C19.2857 1.35383 18.6461 0.714233 17.8572 0.714233Z" stroke="white" stroke-width="1.71429" stroke-linecap="round" stroke-linejoin="round"/>
    <path d="M6.42858 12.1428H2.14287C1.35389 12.1428 0.714294 12.7824 0.714294 13.5714V17.8571C0.714294 18.6461 1.35389 19.2857 2.14287 19.2857H6.42858C7.21756 19.2857 7.85715 18.6461 7.85715 17.8571V13.5714C7.85715 12.7824 7.21756 12.1428 6.42858 12.1428Z" stroke="white" stroke-width="1.71429" stroke-linecap="round" stroke-linejoin="round"/>
    <path d="M17.8572 12.1428H13.5715C12.7825 12.1428 12.1429 12.7824 12.1429 13.5714V17.8571C12.1429 18.6461 12.7825 19.2857 13.5715 19.2857H17.8572C18.6461 19.2857 19.2857 18.6461 19.2857 17.8571V13.5714C19.2857 12.7824 18.6461 12.1428 17.8572 12.1428Z" stroke="white" stroke-width="1.71429" stroke-linecap="round" stroke-linejoin="round"/>
  </g>
  <defs>
    <clipPath id="clip0_1_8">
      <rect width="20" height="20" fill="white"/>
    </clipPath>
  </defs>
</svg>
