<svg width="20" height="20" viewBox="0 0 20 20" fill="none" xmlns="http://www.w3.org/2000/svg">
  <g clip-path="url(#clip0_1_27)">
    <path d="M13.5715 19.2857V15.7142H16.4286C16.8075 15.7142 17.1708 15.5637 17.4388 15.2958C17.7067 15.0279 17.8572 14.6645 17.8572 14.2857V8.57138C17.8569 7.17499 17.4845 5.8039 16.7783 4.59925C16.0721 3.39459 15.0576 2.39991 13.8393 1.71758C12.621 1.03525 11.2428 0.689943 9.84669 0.717195C8.45056 0.744447 7.08692 1.14328 5.89615 1.87263C4.70537 2.60198 3.73048 3.6355 3.07183 4.86679C2.41318 6.09809 2.09458 7.48267 2.14881 8.87801C2.20305 10.2733 2.62816 11.629 3.3804 12.8055C4.13263 13.9819 5.1848 14.9367 6.4286 15.5714V19.2857" stroke="#C3C3C3" stroke-width="1.71429" stroke-linecap="round" stroke-linejoin="round"/>
  </g>
  <defs>
    <clipPath id="clip0_1_27">
      <rect width="20" height="20" fill="white"/>
    </clipPath>
  </defs>
</svg>
