<svg width="21" height="20" viewBox="0 0 21 20" fill="none" xmlns="http://www.w3.org/2000/svg">
  <g>
    <path d="M8.35714 13.5715L4.78572 5.71436L1.21429 13.5715C1.21429 14.5187 1.59056 15.4271 2.26033 16.0969C2.93011 16.7667 3.83851 17.1429 4.78572 17.1429C5.73292 17.1429 6.64132 16.7667 7.3111 16.0969C7.98087 15.4271 8.35714 14.5187 8.35714 13.5715Z" stroke="#C3C3C3" stroke-width="1.71429" stroke-linecap="round" stroke-linejoin="round"/>
    <path d="M19.7857 13.5715L16.2143 5.71436L12.6429 13.5715C12.6429 14.5187 13.0191 15.4271 13.6889 16.0969C14.3587 16.7667 15.2671 17.1429 16.2143 17.1429C17.1615 17.1429 18.0699 16.7667 18.7397 16.0969C19.4094 15.4271 19.7857 14.5187 19.7857 13.5715Z" stroke="#C3C3C3" stroke-width="1.71429" stroke-linecap="round" stroke-linejoin="round"/>
    <path d="M2.64286 5.71436H18.3571" stroke="#C3C3C3" stroke-width="1.71429" stroke-linecap="round" stroke-linejoin="round"/>
    <path d="M10.5 5.71432V2.85718" stroke="#C3C3C3" stroke-width="1.71429" stroke-linecap="round" stroke-linejoin="round"/>
  </g>
</svg>
