<svg width="20" height="20" viewBox="0 0 20 20" fill="none" xmlns="http://www.w3.org/2000/svg">
  <g clip-path="url(#clip0_1_33)">
    <path d="M4.99999 10.7142C5.39448 10.7142 5.71428 10.3944 5.71428 9.99993C5.71428 9.60544 5.39448 9.28564 4.99999 9.28564C4.6055 9.28564 4.28571 9.60544 4.28571 9.99993C4.28571 10.3944 4.6055 10.7142 4.99999 10.7142Z" stroke="#C3C3C3" stroke-width="1.71429" stroke-linecap="round" stroke-linejoin="round"/>
    <path d="M9.64287 10.7142C10.0374 10.7142 10.3572 10.3944 10.3572 9.99993C10.3572 9.60544 10.0374 9.28564 9.64287 9.28564C9.24839 9.28564 8.92859 9.60544 8.92859 9.99993C8.92859 10.3944 9.24839 10.7142 9.64287 10.7142Z" stroke="#C3C3C3" stroke-width="1.71429" stroke-linecap="round" stroke-linejoin="round"/>
    <path d="M14.2857 10.7142C14.6802 10.7142 15 10.3944 15 9.99993C15 9.60544 14.6802 9.28564 14.2857 9.28564C13.8912 9.28564 13.5714 9.60544 13.5714 9.99993C13.5714 10.3944 13.8912 10.7142 14.2857 10.7142Z" stroke="#C3C3C3" stroke-width="1.71429" stroke-linecap="round" stroke-linejoin="round"/>
    <path d="M10 0.714235C8.32035 0.714758 6.67229 1.17086 5.23135 2.03397C3.79042 2.89707 2.61058 4.13486 1.81749 5.61549C1.0244 7.09611 0.647767 8.76413 0.727708 10.4419C0.807648 12.1196 1.34117 13.7443 2.27144 15.1428L0.714294 19.2857L5.92858 18.3428C7.18416 18.9564 8.56204 19.2786 9.9595 19.2855C11.357 19.2925 12.738 18.9839 13.9996 18.3828C15.2612 17.7817 16.3708 16.9036 17.2458 15.8139C18.1208 14.7243 18.7386 13.4512 19.053 12.0895C19.3675 10.7279 19.3706 9.31284 19.0621 7.94985C18.7535 6.58685 18.1413 5.31107 17.2711 4.21761C16.4009 3.12415 15.2951 2.24122 14.0361 1.63462C12.7771 1.02802 11.3975 0.71341 10 0.714235V0.714235Z" stroke="#C3C3C3" stroke-width="1.71429" stroke-linecap="round" stroke-linejoin="round"/>
  </g>
  <defs>
    <clipPath id="clip0_1_33">
      <rect width="20" height="20" fill="white"/>
    </clipPath>
  </defs>
</svg>
